<svg width="32" height="32" viewBox="0 0 32 32" fill="none" xmlns="http://www.w3.org/2000/svg">
<path fill-rule="evenodd" clip-rule="evenodd" d="M16 0C7.16344 0 0 7.16344 0 16C0 24.8366 7.16344 32 16 32C24.8366 32 32 24.8366 32 16C32 7.16344 24.8366 0 16 0ZM12.4823 7.51835C13.3926 7.47693 13.6834 7.4668 16.0009 7.4668H15.9983C18.3165 7.4668 18.6063 7.47693 19.5165 7.51835C20.425 7.55995 21.0454 7.70378 21.5895 7.9148C22.1512 8.13258 22.6259 8.42414 23.1006 8.89881C23.5753 9.37313 23.8668 9.84922 24.0855 10.4105C24.2953 10.9531 24.4393 11.5732 24.4819 12.4816C24.5228 13.3918 24.5335 13.6827 24.5335 16.0002C24.5335 18.3178 24.5228 18.6079 24.4819 19.5181C24.4393 20.4262 24.2953 21.0465 24.0855 21.5893C23.8668 22.1503 23.5753 22.6264 23.1006 23.1007C22.6264 23.5754 22.1511 23.8677 21.59 24.0856C21.047 24.2967 20.4262 24.4405 19.5178 24.4821C18.6076 24.5235 18.3176 24.5336 15.9999 24.5336C13.6825 24.5336 13.3919 24.5235 12.4816 24.4821C11.5733 24.4405 10.9531 24.2967 10.4101 24.0856C9.84924 23.8677 9.37315 23.5754 8.89901 23.1007C8.42452 22.6264 8.13296 22.1503 7.91482 21.5891C7.70398 21.0465 7.56015 20.4264 7.51837 19.5179C7.47713 18.6077 7.46682 18.3178 7.46682 16.0002C7.46682 13.6827 7.47748 13.3917 7.5182 12.4814C7.55908 11.5733 7.70309 10.9531 7.91464 10.4103C8.13331 9.84922 8.42487 9.37313 8.89954 8.89881C9.37386 8.42432 9.84995 8.13276 10.4112 7.9148C10.9538 7.70378 11.5739 7.55995 12.4823 7.51835Z" fill="white"/>
<path fill-rule="evenodd" clip-rule="evenodd" d="M15.2355 9.00213C15.3842 9.0019 15.5441 9.00197 15.7166 9.00205L16.001 9.00213C18.2795 9.00213 18.5495 9.01031 19.4492 9.0512C20.2813 9.08925 20.7328 9.22827 21.0336 9.34507C21.4318 9.49974 21.7158 9.68463 22.0142 9.9833C22.3129 10.282 22.4978 10.5664 22.6528 10.9646C22.7696 11.2651 22.9088 11.7167 22.9467 12.5487C22.9876 13.4482 22.9965 13.7184 22.9965 15.9958C22.9965 18.2732 22.9876 18.5434 22.9467 19.443C22.9087 20.275 22.7696 20.7265 22.6528 21.027C22.4982 21.4252 22.3129 21.7088 22.0142 22.0072C21.7156 22.3059 21.432 22.4908 21.0336 22.6455C20.7332 22.7628 20.2813 22.9015 19.4492 22.9395C18.5497 22.9804 18.2795 22.9893 16.001 22.9893C13.7224 22.9893 13.4524 22.9804 12.5528 22.9395C11.7208 22.9011 11.2692 22.7621 10.9683 22.6453C10.57 22.4906 10.2856 22.3057 9.98692 22.0071C9.68825 21.7084 9.50336 21.4247 9.34834 21.0263C9.23154 20.7258 9.09234 20.2743 9.05447 19.4422C9.01358 18.5427 9.0054 18.2725 9.0054 15.9937C9.0054 13.7149 9.01358 13.4461 9.05447 12.5465C9.09251 11.7145 9.23154 11.263 9.34834 10.9622C9.50301 10.5639 9.68825 10.2795 9.98692 9.98081C10.2856 9.68214 10.57 9.49725 10.9683 9.34223C11.2691 9.22489 11.7208 9.08622 12.5528 9.048C13.34 9.01244 13.6451 9.00178 15.2355 9V9.00213ZM20.5559 10.419C19.9906 10.419 19.5319 10.8771 19.5319 11.4426C19.5319 12.008 19.9906 12.4666 20.5559 12.4666C21.1213 12.4666 21.5799 12.008 21.5799 11.4426C21.5799 10.8773 21.1213 10.4186 20.5559 10.4186V10.419ZM11.6188 15.9969C11.6188 13.5768 13.5809 11.6147 16.0009 11.6146C18.421 11.6146 20.3827 13.5767 20.3827 15.9969C20.3827 18.417 18.4212 20.3782 16.0011 20.3782C13.581 20.3782 11.6188 18.417 11.6188 15.9969Z" fill="white"/>
<path fill-rule="evenodd" clip-rule="evenodd" d="M16.0008 13.1562C17.5716 13.1562 18.8452 14.4297 18.8452 16.0007C18.8452 17.5716 17.5716 18.8452 16.0008 18.8452C14.4297 18.8452 13.1563 17.5716 13.1563 16.0007C13.1563 14.4297 14.4297 13.1563 16.0008 13.1563V13.1562Z" fill="white"/>
</svg>
